<?xml version="1.0" encoding="utf-8"?><svg xmlns="http://www.w3.org/2000/svg" xmlns:xlink="http://www.w3.org/1999/xlink" width="3000" height="723" preserveAspectRatio="xMidYMid" viewBox="0 0 3000 723" style="z-index:1;margin-right:-2px;display:block;background-repeat-y:initial;background-repeat-x:initial;background-color:rgb(241, 242, 243);animation-play-state:paused" ><g transform="translate(1500,361.5) scale(1,1) translate(-1500,-361.5)" style="transform:matrix(1, 0, 0, 1, 0, 0);animation-play-state:paused" ><linearGradient id="lg-0.4586735043445358" x1="0" x2="1" y1="0" y2="0" style="animation-play-state:paused" ><stop stop-color="#215d38" offset="0" style="animation-play-state:paused" ></stop>

  
<stop stop-color="#14a651" offset="1" style="animation-play-state:paused" ></stop></linearGradient>
<path d="M 0 0 L 0 707.404 Q 300 569.722 600 545.661 T 1200 467.632 T 1800 409.57 T 2400 399.275 T 3000 350.478 L 3000 0 Z" fill="url(#lg-0.4586735043445358)" opacity="0.4" style="opacity:0.4;animation-play-state:paused" ></path>
<path d="M 0 0 L 0 663.431 Q 300 636.471 600 611.15 T 1200 506.348 T 1800 432.387 T 2400 387.622 T 3000 346.911 L 3000 0 Z" fill="url(#lg-0.4586735043445358)" opacity="0.4" style="opacity:0.4;animation-play-state:paused" ></path>
<path d="M 0 0 L 0 641.228 Q 300 656.381 600 638.64 T 1200 553.11 T 1800 432.065 T 2400 347.563 T 3000 300.556 L 3000 0 Z" fill="url(#lg-0.4586735043445358)" opacity="0.4" style="opacity:0.4;animation-play-state:paused" ></path>
<path d="M 0 0 L 0 634.368 Q 300 621.204 600 602.777 T 1200 525.87 T 1800 462.24 T 2400 398.91 T 3000 307.527 L 3000 0 Z" fill="url(#lg-0.4586735043445358)" opacity="0.4" style="opacity:0.4;animation-play-state:paused" ></path>
<path d="M 0 0 L 0 631.564 Q 300 641.217 600 604.59 T 1200 472.372 T 1800 463.262 T 2400 331.546 T 3000 310.18 L 3000 0 Z" fill="url(#lg-0.4586735043445358)" opacity="0.4" style="opacity:0.4;animation-play-state:paused" ></path></g></svg>